<?xml version="1.0" standalone="no"?>
<!DOCTYPE svg PUBLIC "-//W3C//DTD SVG 20010904//EN"
 "http://www.w3.org/TR/2001/REC-SVG-20010904/DTD/svg10.dtd">
<svg version="1.0" xmlns="http://www.w3.org/2000/svg"
 width="1850.000000pt" height="1850.000000pt" viewBox="0 0 1850.000000 1850.000000"
 preserveAspectRatio="xMidYMid meet">
<metadata>
Created by potrace 1.14, written by Peter Selinger 2001-2017
</metadata>
<g transform="translate(0.000000,1850.000000) scale(0.100000,-0.100000)"
fill="#000000" stroke="none">
<path d="M8847 17954 c-1 -1 -40 -5 -87 -8 -47 -4 -101 -8 -120 -11 -19 -2
-71 -7 -115 -10 -44 -4 -91 -8 -105 -10 -57 -6 -181 -16 -265 -20 -108 -6
-210 -18 -280 -31 -11 -2 -33 -7 -50 -9 -99 -18 -294 -61 -450 -100 -99 -26
-187 -48 -195 -50 -8 -2 -118 -31 -243 -64 -461 -124 -627 -180 -927 -314
-149 -66 -567 -277 -611 -307 -15 -11 -30 -20 -33 -20 -29 0 -681 -419 -716
-460 -3 -4 -27 -21 -55 -40 -43 -29 -370 -284 -385 -300 -3 -3 -68 -59 -145
-125 -155 -132 -341 -314 -456 -445 -41 -47 -78 -90 -84 -96 -30 -34 -91 -109
-154 -189 -39 -49 -74 -94 -78 -100 -5 -5 -24 -30 -43 -55 -19 -25 -37 -47
-40 -50 -16 -13 -200 -271 -200 -280 0 -5 -3 -10 -7 -10 -5 0 -30 -36 -58 -80
-27 -44 -80 -126 -116 -182 -36 -57 -101 -159 -144 -228 -66 -107 -204 -319
-267 -412 -10 -15 -18 -32 -18 -38 0 -5 -4 -10 -10 -10 -5 0 -10 -4 -10 -8 0
-5 -25 -50 -55 -101 -141 -234 -278 -557 -340 -801 -8 -30 -21 -80 -29 -110
-25 -86 -82 -334 -112 -485 -11 -55 -24 -136 -29 -185 -4 -30 -8 -67 -11 -81
-2 -15 -6 -47 -9 -70 -3 -24 -7 -64 -10 -89 -12 -100 -13 -119 -20 -210 -13
-205 -15 -244 -15 -515 0 -272 4 -416 14 -493 3 -20 7 -68 11 -107 3 -38 8
-81 10 -95 2 -14 7 -45 10 -70 22 -184 82 -455 162 -730 25 -85 28 -96 57
-200 8 -30 19 -64 24 -75 5 -11 33 -94 62 -185 30 -91 71 -212 92 -270 20 -58
58 -161 82 -230 104 -292 222 -550 334 -730 36 -57 71 -111 78 -120 7 -8 34
-42 60 -75 77 -96 125 -147 355 -376 254 -254 442 -416 583 -506 123 -78 359
-195 441 -218 33 -9 86 -31 119 -48 32 -17 65 -32 75 -32 9 -1 36 -8 61 -15
140 -39 445 -52 588 -25 126 24 257 67 352 114 330 163 561 296 640 368 14 13
28 23 31 23 3 0 19 12 35 26 67 59 69 60 116 23 24 -19 49 -39 56 -46 32 -31
412 -283 426 -283 2 0 41 -22 87 -48 126 -73 333 -175 434 -216 50 -20 97 -40
106 -45 9 -5 35 -15 58 -21 29 -8 41 -16 41 -29 0 -10 -49 -84 -109 -163 -59
-80 -127 -174 -151 -209 -54 -81 -180 -280 -214 -339 -25 -42 -144 -284 -168
-340 -6 -14 -14 -33 -19 -43 -14 -26 -70 -170 -74 -187 -2 -8 -11 -35 -19 -58
-15 -41 -81 -275 -91 -317 -56 -265 -61 -292 -80 -430 -8 -60 -17 -128 -21
-150 -3 -22 -7 -139 -9 -260 -2 -183 0 -235 15 -308 27 -128 63 -215 121 -287
l51 -63 -38 8 c-98 19 -278 27 -311 14 -34 -13 -28 -25 25 -55 26 -15 49 -29
51 -30 2 -2 -11 -16 -30 -31 -177 -149 -300 -420 -334 -738 -17 -154 -5 -469
25 -645 5 -30 11 -72 14 -92 3 -21 10 -57 15 -80 6 -24 13 -59 16 -78 47 -278
204 -679 354 -907 67 -100 189 -231 264 -282 167 -113 434 -186 677 -184 63 0
292 24 379 38 13 2 45 7 70 11 48 6 341 73 351 79 4 2 17 6 31 9 90 17 312
115 428 189 l54 35 45 -35 c149 -114 383 -176 747 -200 195 -13 578 -6 686 12
13 2 51 7 84 10 33 3 76 10 95 15 19 5 49 11 65 14 56 10 248 68 339 103 122
46 353 159 460 224 141 87 118 83 252 47 l119 -32 340 -1 c187 -1 358 -5 380
-8 22 -3 78 -8 125 -11 47 -3 135 -9 195 -13 141 -10 494 -10 565 -1 135 18
330 89 445 161 135 85 263 205 369 347 278 368 474 704 530 905 15 54 30 104
37 125 11 30 11 30 49 214 17 82 33 172 36 200 4 28 10 74 14 101 5 28 8 109
8 180 0 187 -28 330 -85 440 -49 95 -99 129 -123 84 -11 -20 -12 -20 -35 5
-13 14 -34 27 -47 27 -76 5 -99 4 -155 -8 -115 -23 -413 -154 -515 -224 -14
-11 -29 -19 -33 -19 -4 0 -30 -16 -56 -35 -27 -19 -52 -35 -55 -35 -8 0 -180
-130 -224 -170 -96 -86 -225 -220 -251 -261 -3 -6 -29 22 -58 60 -54 73 -114
125 -237 204 -67 43 -71 48 -82 98 -31 134 -127 321 -249 488 -45 61 -180 228
-203 251 -28 28 -30 38 -15 74 31 74 43 165 41 314 -2 132 -5 155 -29 226 -68
195 -212 366 -464 551 -102 76 -182 130 -253 174 -190 118 -348 267 -514 484
-11 15 -31 40 -43 55 -13 15 -23 30 -23 34 0 4 -6 13 -13 20 -47 49 -134 215
-185 353 l-29 80 21 8 c11 5 30 10 41 13 25 5 128 27 135 29 3 1 23 5 45 9
114 22 527 150 723 225 l103 39 21 -42 c21 -42 80 -121 108 -144 54 -45 220
-106 320 -118 31 -4 59 -17 90 -40 59 -46 168 -99 250 -123 82 -23 245 -25
380 -5 147 22 159 24 230 39 14 3 34 7 45 9 123 24 287 75 353 110 15 8 79 40
142 71 158 78 416 249 558 369 122 103 456 439 583 587 11 13 37 42 58 64 20
22 88 103 150 180 62 77 120 149 129 160 10 11 30 41 47 65 16 25 33 47 36 50
8 7 110 169 187 296 205 340 413 891 533 1406 41 176 39 169 45 198 3 14 7 33
10 42 3 10 7 30 10 45 3 16 11 53 19 83 7 30 21 105 30 165 9 61 18 121 21
135 2 14 6 52 9 85 4 33 8 74 10 90 2 17 7 71 11 120 3 50 8 93 11 97 6 12 16
407 17 693 0 256 -9 616 -18 665 -3 14 -7 52 -10 85 -6 71 -12 111 -32 225 -8
47 -18 99 -20 115 -11 64 -100 477 -109 505 -3 10 -7 27 -9 37 -10 49 -75 265
-124 413 -76 228 -178 476 -350 851 -59 128 -230 465 -281 553 -28 49 -51 90
-51 91 0 6 -117 187 -169 262 -54 77 -231 311 -254 335 -7 7 -47 54 -88 103
-132 156 -390 406 -548 531 -13 10 -40 33 -60 49 -72 60 -138 112 -261 205
-69 52 -129 98 -135 103 -5 4 -59 43 -120 87 -60 43 -121 88 -135 98 -68 51
-320 222 -328 222 -5 0 -15 7 -22 15 -6 8 -49 36 -93 62 -45 26 -90 52 -99 58
-132 80 -474 254 -608 310 -36 15 -73 31 -82 36 -143 74 -907 331 -1143 384
-11 2 -58 14 -105 26 -115 29 -122 30 -147 34 -12 2 -26 6 -31 9 -5 3 -24 8
-43 11 -19 3 -72 15 -119 25 -200 44 -267 59 -300 64 -19 3 -46 8 -60 11 -14
3 -43 7 -65 10 -22 3 -51 7 -64 10 -33 6 -167 24 -227 31 -106 11 -144 14
-264 19 -69 3 -136 8 -150 10 -26 5 -85 12 -155 20 -92 10 -421 25 -428 19z
m-115 -1233 l23 -10 -25 -1 c-14 -1 -32 -3 -40 -5 -8 -2 -49 -11 -90 -20 -41
-9 -82 -18 -90 -20 -144 -31 -612 -174 -741 -226 -30 -11 -58 -22 -64 -23 -14
-3 -151 -57 -270 -106 -143 -60 -327 -147 -450 -214 -22 -12 -67 -36 -100 -54
-33 -18 -67 -37 -75 -42 -8 -5 -67 -40 -130 -78 -259 -155 -491 -317 -685
-480 -270 -228 -549 -503 -701 -692 -113 -141 -318 -427 -337 -470 -4 -8 -11
-22 -16 -30 -37 -58 -175 -392 -224 -540 -19 -58 -44 -121 -55 -140 -12 -19
-32 -64 -45 -100 -14 -36 -56 -130 -95 -210 -39 -80 -82 -174 -96 -210 -29
-70 -38 -80 -79 -80 -34 0 -265 -46 -327 -65 -116 -35 -215 -81 -279 -129
l-35 -26 -18 47 c-10 27 -20 59 -23 73 -3 14 -9 40 -14 57 -5 18 -8 106 -6
195 4 181 23 281 91 473 61 171 190 400 322 574 74 98 210 241 229 241 31 0
75 33 91 68 11 22 126 145 288 307 286 284 316 313 404 385 30 25 57 47 60 50
3 3 39 33 80 65 41 33 77 63 80 66 3 3 26 21 51 40 25 19 92 70 149 114 56 44
117 90 134 103 17 12 38 28 46 35 8 6 28 21 45 31 16 11 34 23 40 28 17 15
194 128 200 128 8 0 167 91 185 106 18 15 430 224 545 276 44 20 163 73 265
116 102 44 211 92 242 106 31 14 63 26 70 26 8 0 18 4 23 9 19 17 213 72 335
95 14 2 59 12 100 21 134 29 298 61 360 70 24 4 47 8 50 10 3 1 41 6 85 10 44
4 82 8 85 10 3 2 39 6 80 10 41 3 82 8 90 10 8 2 44 7 80 10 36 4 66 8 67 8 7
7 96 5 115 -2z m-1273 -13542 c12 -23 20 -44 17 -46 -3 -3 -85 -8 -183 -10
-176 -5 -218 -1 -116 11 57 7 194 48 233 71 14 8 26 14 26 15 1 0 12 -19 23
-41z"/>
</g>
</svg>
